# Blender 4.1.1
# www.blender.org
mtllib SimpleHandL.mtl
o Hand_Mesh_L
v 0.131597 -0.058237 0.030184
v 0.068176 -0.080638 0.029882
v 0.131609 -0.020864 0.030184
v 0.068178 0.001524 0.029899
v -0.077610 0.000974 0.030749
v -0.132975 -0.022380 0.054051
v -0.133190 -0.057542 0.053961
v -0.077561 -0.080683 0.030601
v -0.065557 0.024555 0.270492
v -0.122605 0.018255 0.232091
v -0.065863 0.031134 0.246657
v -0.061726 -0.008946 -0.201051
v -0.063778 0.011126 -0.179434
v -0.118398 -0.010230 -0.179057
v -0.065558 -0.001687 0.275492
v -0.065863 -0.021531 0.256678
v -0.122605 -0.008659 0.237212
v -0.061766 -0.053711 -0.201055
v -0.118364 -0.054336 -0.179053
v -0.063746 -0.075693 -0.179430
v 0.062972 0.024555 0.249712
v 0.063205 0.031134 0.225258
v 0.120060 0.018255 0.210456
v 0.059607 -0.008946 -0.200915
v 0.114384 -0.010230 -0.179028
v 0.059747 0.011126 -0.179157
v 0.063205 -0.021531 0.235278
v 0.062973 -0.001687 0.254719
v 0.120060 -0.008659 0.215578
v 0.059644 -0.053711 -0.200910
v 0.059734 -0.075693 -0.179158
v 0.114382 -0.054336 -0.179028
v 0.067253 0.001534 0.112311
v 0.132298 -0.051667 0.110985
v -0.130896 -0.017999 0.116600
v -0.065025 -0.071448 0.114737
v -0.130893 -0.051422 0.116735
v -0.065002 0.001522 0.114478
v 0.132277 -0.018233 0.110654
v 0.067284 -0.071438 0.113079
v -0.131056 -0.029176 0.194548
v -0.066259 0.017861 0.190661
v 0.128825 0.000515 0.169573
v 0.065554 -0.046571 0.187333
v 0.065184 0.017864 0.177760
v 0.128983 -0.029194 0.173904
v -0.130946 0.000527 0.190836
v -0.066289 -0.046575 0.197273
v 0.060345 -0.081542 -0.121137
v 0.122434 -0.013498 -0.120798
v -0.084478 0.011369 -0.117771
v -0.138548 -0.054854 -0.132616
v -0.084474 -0.081191 -0.117780
v -0.138546 -0.013489 -0.132615
v 0.060353 0.011857 -0.121137
v 0.122427 -0.056183 -0.120798
v -0.177546 -0.014888 0.058959
v -0.174141 0.000232 0.039996
v -0.178831 -0.041510 0.058736
v -0.198852 0.003147 -0.019826
v -0.211910 -0.041329 -0.025406
v -0.177331 -0.058657 0.041599
v -0.202796 -0.058890 -0.020488
v -0.210278 -0.012944 -0.025461
v -0.175344 -0.016842 -0.086373
v -0.162301 0.003532 -0.076932
v -0.144268 -0.002683 0.019392
v -0.151228 -0.053738 0.042834
v -0.149830 -0.020997 0.042985
v -0.175407 -0.053485 -0.086371
v -0.162290 -0.075312 -0.076927
v -0.145010 -0.076064 0.019130
v -0.199418 -0.002786 0.078480
v -0.212330 0.001349 0.082396
v -0.197321 0.006628 0.065933
v -0.208575 0.009875 0.075211
v -0.202442 -0.023338 0.080208
v -0.216203 -0.015484 0.084272
v -0.221334 0.015000 0.060648
v -0.216815 0.012096 0.034363
v -0.231621 -0.019311 0.037875
v -0.233029 -0.010048 0.064944
v -0.215863 -0.025306 0.079717
v -0.204013 -0.037132 0.068805
v -0.225246 -0.032979 0.035173
v -0.232483 -0.020296 0.061442
v -0.227670 0.006814 0.064546
v -0.227650 0.001981 0.038528
v 0.063063 -0.082095 -0.073191
v 0.125626 -0.016312 -0.072863
v -0.074090 0.009860 -0.071054
v -0.074060 -0.083819 -0.071103
v 0.063074 0.008186 -0.073185
v 0.125614 -0.057588 -0.072863
v -0.183934 0.003613 0.005386
v -0.186988 -0.063380 0.005834
v -0.149265 -0.079544 -0.031721
v -0.149014 0.004142 -0.031565
v -0.221355 0.003913 0.075100
v -0.225783 -0.012287 0.076231
v -0.214694 0.012808 0.067359
v -0.224356 -0.023388 0.070588
v -0.205582 0.010835 0.047781
v -0.213860 -0.037292 0.050217
v 0.030594 -0.001687 0.268795
v 0.030698 -0.021531 0.249957
v 0.028124 -0.053711 -0.200947
v 0.027676 -0.075693 -0.179229
v 0.030593 0.024555 0.263795
v 0.030698 0.031134 0.239936
v 0.028107 -0.008946 -0.200950
v 0.027678 0.011126 -0.179229
v 0.030329 0.001381 0.030120
v 0.030341 -0.080650 0.030069
v 0.033054 0.001531 0.113966
v 0.033052 -0.071440 0.114449
v 0.031836 0.017863 0.187319
v 0.031994 -0.046572 0.195258
v 0.022748 -0.081451 -0.120265
v 0.022753 0.011731 -0.120263
v 0.027464 -0.082543 -0.072649
v 0.027464 0.008621 -0.072631
v -0.133083 -0.039961 0.054006
v -0.065558 0.011434 0.272992
v -0.122605 0.004798 0.234652
v -0.061746 -0.031328 -0.201053
v -0.118381 -0.032283 -0.179055
v 0.062972 0.011434 0.252215
v 0.120060 0.004798 0.213017
v 0.059626 -0.031328 -0.200912
v 0.114383 -0.032283 -0.179028
v 0.131603 -0.039551 0.030184
v -0.130894 -0.034711 0.116667
v 0.132288 -0.034950 0.110819
v -0.131001 -0.014324 0.192692
v 0.128904 -0.014340 0.171738
v 0.122430 -0.034841 -0.120798
v -0.138547 -0.034171 -0.132616
v -0.178188 -0.028199 0.058848
v -0.211094 -0.027137 -0.025433
v -0.175376 -0.035163 -0.086372
v -0.150529 -0.037367 0.042909
v -0.200930 -0.013062 0.079344
v -0.214266 -0.007068 0.083334
v -0.230350 -0.001617 0.064745
v -0.229635 -0.008665 0.038202
v -0.223569 -0.004187 0.075666
v 0.125620 -0.036950 -0.072863
v 0.030594 0.011434 0.266295
v 0.028116 -0.031328 -0.200949
vn 0.8113 -0.5847 0.0041
vn 0.1725 -0.9837 0.0504
vn 0.8249 0.5651 -0.0161
vn 0.1720 0.9849 0.0210
vn -0.0981 0.9905 0.0962
vn -0.6266 0.6337 0.4536
vn -0.5907 -0.6545 0.4720
vn -0.0971 -0.9880 0.1203
vn -0.2213 0.6275 0.7465
vn -0.7033 0.6597 0.2648
vn -0.1237 0.9919 0.0290
vn -0.1652 0.3791 -0.9105
vn -0.1533 0.9135 -0.3768
vn -0.6387 0.4874 -0.5954
vn -0.2249 -0.2462 0.9428
vn -0.1531 -0.7976 0.5834
vn -0.7348 -0.3525 0.5795
vn -0.1627 -0.3574 -0.9197
vn -0.6321 -0.4652 -0.6196
vn -0.1500 -0.8882 -0.4343
vn 0.3876 0.6451 0.6585
vn 0.1099 0.9936 -0.0259
vn 0.6985 0.6695 0.2526
vn 0.1730 0.3827 -0.9075
vn 0.7136 0.4860 -0.5045
vn 0.1703 0.9204 -0.3518
vn 0.2853 -0.7761 0.5624
vn 0.4530 -0.2528 0.8549
vn 0.7386 -0.3284 0.5888
vn 0.1701 -0.3606 -0.9171
vn 0.1669 -0.8962 -0.4111
vn 0.7101 -0.4653 -0.5284
vn 0.1351 0.9826 -0.1276
vn 0.7892 -0.5969 0.1447
vn -0.8211 0.5681 -0.0551
vn -0.1362 -0.9702 0.2003
vn -0.7825 -0.6060 0.1430
vn -0.1477 0.9828 -0.1110
vn 0.8306 0.5540 -0.0564
vn 0.1653 -0.9641 0.2080
vn -0.7910 -0.5540 0.2594
vn -0.1226 0.9629 -0.2404
vn 0.8006 0.5939 -0.0796
vn 0.2043 -0.9009 0.3828
vn 0.0747 0.9613 -0.2650
vn 0.7987 -0.5203 0.3021
vn -0.8141 0.5754 -0.0788
vn -0.1357 -0.9279 0.3472
vn 0.1858 -0.9806 -0.0628
vn 0.8297 0.5558 -0.0521
vn -0.1655 0.9838 -0.0695
vn -0.7062 -0.5087 -0.4924
vn -0.1687 -0.9743 -0.1490
vn -0.7171 0.5208 -0.4631
vn 0.1864 0.9822 0.0232
vn 0.8271 -0.5531 -0.0997
vn 0.6425 0.2605 0.7207
vn 0.4270 0.8442 0.3240
vn 0.3691 -0.4070 0.8355
vn -0.3973 0.8844 -0.2449
vn -0.9070 -0.2386 -0.3471
vn -0.1717 -0.8628 0.4755
vn -0.6565 -0.7473 -0.1032
vn -0.8469 0.3406 -0.4083
vn -0.7486 0.3816 -0.5422
vn -0.3453 0.9044 -0.2506
vn 0.0616 0.9514 0.3018
vn -0.0710 -0.5189 0.8519
vn 0.1166 0.4882 0.8649
vn -0.7616 -0.3702 -0.5319
vn -0.4100 -0.8756 -0.2552
vn -0.1803 -0.9412 0.2856
vn 0.5623 0.2769 0.7792
vn -0.0528 0.4237 0.9043
vn 0.5371 0.7725 0.3388
vn 0.1821 0.8225 0.5388
vn 0.3412 -0.3094 0.8876
vn -0.2695 -0.1501 0.9512
vn -0.3513 0.9313 0.0966
vn -0.3304 0.9217 -0.2034
vn -0.9832 -0.0839 -0.1620
vn -0.9611 0.0206 0.2756
vn -0.3646 -0.6344 0.6816
vn -0.1877 -0.8077 0.5589
vn -0.7706 -0.6360 0.0411
vn -0.8505 -0.4804 0.2140
vn -0.8074 0.5246 0.2700
vn -0.8849 0.4166 -0.2083
vn 0.1862 -0.9824 -0.0149
vn 0.8259 0.5636 -0.0163
vn -0.0264 0.9979 0.0594
vn -0.0332 -0.9994 -0.0125
vn 0.1863 0.9810 0.0533
vn 0.8216 -0.5675 -0.0545
vn 0.1352 0.9908 0.0022
vn -0.4145 -0.8993 0.1395
vn -0.2004 -0.9792 0.0323
vn -0.0208 0.9986 0.0494
vn -0.5764 0.4881 0.6553
vn -0.7496 -0.0396 0.6607
vn -0.0460 0.9442 0.3260
vn -0.6768 -0.5943 0.4345
vn 0.2678 0.9634 -0.0106
vn -0.5163 -0.8250 0.2300
vn 0.2211 -0.2669 0.9380
vn 0.1401 -0.7969 0.5876
vn 0.0013 -0.3798 -0.9251
vn -0.0006 -0.9030 -0.4296
vn 0.1813 0.6468 0.7408
vn 0.0213 0.9991 0.0379
vn 0.0012 0.4006 -0.9162
vn -0.0004 0.9294 -0.3690
vn 0.0013 0.9994 0.0352
vn 0.0040 -0.9979 0.0647
vn -0.0121 0.9934 -0.1144
vn 0.0125 -0.9785 0.2059
vn -0.0400 0.9709 -0.2360
vn 0.0575 -0.9292 0.3651
vn 0.0009 -0.9980 -0.0627
vn 0.0017 0.9997 0.0247
vn 0.0054 -1.0000 -0.0039
vn 0.0050 0.9978 0.0664
vn -0.8676 0.0073 0.4971
vn -0.2620 0.1806 0.9480
vn -0.8368 0.1001 0.5383
vn -0.1836 -0.0000 -0.9830
vn -0.6931 -0.0002 -0.7208
vn 0.4846 0.1638 0.8592
vn 0.8362 0.1017 0.5389
vn 0.1895 -0.0000 -0.9819
vn 0.7876 -0.0000 -0.6162
vn 0.9994 -0.0001 -0.0332
vn -0.9999 0.0023 0.0164
vn 0.9997 0.0034 0.0222
vn -0.9957 0.0161 0.0908
vn 0.9921 0.0210 0.1239
vn 0.9948 -0.0002 -0.1017
vn -0.8571 0.0001 -0.5151
vn 0.5771 -0.0320 0.8161
vn -0.9091 0.0666 -0.4111
vn -0.8237 0.0113 -0.5669
vn -0.0257 -0.0105 0.9996
vn 0.4890 0.0002 0.8723
vn -0.1567 0.1426 0.9773
vn -0.9324 0.2635 0.2474
vn -0.9639 0.1751 -0.2007
vn -0.6946 0.2416 0.6777
vn 0.9981 -0.0003 -0.0622
vn 0.2338 0.1820 0.9551
vn 0.0012 -0.0000 -1.0000
vt 0.757272 0.247413
vt 0.778005 0.239772
vt 0.778963 0.244997
vt 0.759709 0.252179
vt 0.788992 0.344471
vt 0.792458 0.357594
vt 0.784548 0.356526
vt 0.781141 0.344792
vt 0.856117 0.248278
vt 0.845429 0.253175
vt 0.844243 0.250161
vt 0.853448 0.245607
vt 0.831906 0.234936
vt 0.825027 0.245440
vt 0.806619 0.235889
vt 0.811952 0.224103
vt 0.793665 0.367013
vt 0.784583 0.366222
vt 0.785503 0.363010
vt 0.793704 0.363733
vt 0.833088 0.296499
vt 0.829019 0.293248
vt 0.838787 0.289478
vt 0.841195 0.292191
vt 0.803744 0.240484
vt 0.797709 0.228329
vt 0.874483 0.142541
vt 0.869999 0.147520
vt 0.862423 0.138035
vt 0.814945 0.359573
vt 0.813366 0.353708
vt 0.825690 0.349408
vt 0.792098 0.245124
vt 0.781532 0.251488
vt 0.829971 0.251450
vt 0.832850 0.246420
vt 0.895386 0.162089
vt 0.899024 0.173054
vt 0.890429 0.166091
vt 0.771170 0.357070
vt 0.753466 0.255678
vt 0.756629 0.261441
vt 0.745933 0.264637
vt 0.762859 0.258697
vt 0.792049 0.261959
vt 0.802806 0.250574
vt 0.816538 0.362631
vt 0.828418 0.351147
vt 0.877115 0.137521
vt 0.862863 0.132950
vt 0.850443 0.138725
vt 0.856194 0.153428
vt 0.822145 0.250239
vt 0.890660 0.156241
vt 0.885477 0.161172
vt 0.882541 0.176015
vt 0.895398 0.184818
vt 0.829687 0.254545
vt 0.766232 0.347798
vt 0.750318 0.251582
vt 0.741282 0.262424
vt 0.830045 0.339637
vt 0.826351 0.338748
vt 0.763221 0.284412
vt 0.769647 0.308409
vt 0.754065 0.314122
vt 0.747486 0.288829
vt 0.848092 0.226877
vt 0.862262 0.207665
vt 0.876776 0.217941
vt 0.862254 0.236723
vt 0.802349 0.201924
vt 0.807792 0.178813
vt 0.829077 0.184310
vt 0.819394 0.208931
vt 0.807730 0.322215
vt 0.805076 0.297581
vt 0.824805 0.299300
vt 0.825446 0.321146
vt 0.869367 0.180536
vt 0.854105 0.201939
vt 0.849492 0.163864
vt 0.894381 0.197612
vt 0.880931 0.220507
vt 0.889942 0.195123
vt 0.771231 0.281868
vt 0.778490 0.305684
vt 0.810993 0.339812
vt 0.796914 0.217936
vt 0.839707 0.237537
vt 0.829763 0.301137
vt 0.829993 0.322024
vt 0.776423 0.330166
vt 0.761142 0.335777
vt 0.840881 0.222260
vt 0.865834 0.239052
vt 0.784346 0.328185
vt 0.768662 0.270871
vt 0.760524 0.273472
vt 0.904009 0.173409
vt 0.899988 0.186956
vt 0.875622 0.170713
vt 0.745385 0.277014
vt 0.876359 0.185706
vt 0.827965 0.155396
vt 0.816411 0.166048
vt 0.806579 0.160052
vt 0.814204 0.153151
vt 0.835067 0.138598
vt 0.835304 0.145212
vt 0.817823 0.146146
vt 0.817461 0.140909
vt 0.793123 0.239814
vt 0.805331 0.245458
vt 0.848254 0.282113
vt 0.848369 0.279534
vt 0.850756 0.279416
vt 0.850983 0.282489
vt 0.804013 0.149087
vt 0.801827 0.146187
vt 0.828961 0.277272
vt 0.828788 0.269634
vt 0.842770 0.276195
vt 0.842617 0.280753
vt 0.813186 0.263050
vt 0.816601 0.257373
vt 0.832023 0.265842
vt 0.820989 0.286790
vt 0.833231 0.286211
vt 0.806626 0.171080
vt 0.800178 0.162506
vt 0.834775 0.133928
vt 0.817059 0.137342
vt 0.815360 0.274385
vt 0.794234 0.273536
vt 0.850103 0.133411
vt 0.795756 0.151453
vt 0.797386 0.149521
vt 0.799093 0.150654
vt 0.798242 0.152134
vt 0.847546 0.287411
vt 0.849613 0.289211
vt 0.844129 0.285248
vt 0.853162 0.282464
vt 0.852432 0.285934
vt 0.850306 0.285257
vt 0.846196 0.274830
vt 0.801102 0.143679
vt 0.799196 0.155460
vt 0.802397 0.152689
vt 0.795161 0.153667
vt 0.797181 0.153578
vt 0.796023 0.156257
vt 0.848221 0.284640
vt 0.852859 0.278843
vt 0.848500 0.273394
vt 0.895202 0.152171
vt 0.900489 0.159498
vt 0.821009 0.253267
vt 0.801627 0.242540
vt 0.742170 0.289576
vt 0.739802 0.277067
vt 0.793851 0.150785
vt 0.795909 0.147987
vt 0.794106 0.157603
vt 0.793225 0.153961
vt 0.834481 0.263283
vt 0.797944 0.165019
vt 0.801771 0.178566
vt 0.801641 0.172982
vt 0.819220 0.253426
vt 0.763345 0.350140
vt 0.757639 0.338163
vt 0.793225 0.216889
vt 0.798276 0.200135
vt 0.749503 0.315875
vt 0.794436 0.228896
vt 0.769339 0.359707
s 1
usemtl Material
f 150/1/150 107/4/107 18/3/18 126/2/126
f 118/5/118 44/8/44 27/7/27 106/6/106
f 136/9/136 43/12/43 23/11/23 129/10/129
f 117/13/117 42/16/42 11/15/11 110/14/110
f 149/17/149 105/20/105 28/19/28 128/18/128
f 142/21/142 139/24/139 59/23/59 68/22/68
f 9/25/9 11/15/11 10/26/10
f 12/27/12 14/29/14 13/28/13
f 15/30/15 17/32/17 16/31/16
f 18/3/18 20/34/20 19/33/19
f 21/35/21 23/11/23 22/36/22
f 24/37/24 26/39/26 25/38/25
f 27/7/27 29/40/29 28/19/28
f 30/41/30 32/43/32 31/42/31
f 105/20/105 106/6/106 27/7/27 28/19/28
f 107/4/107 108/44/108 20/34/20 18/3/18
f 53/45/53 52/46/52 19/33/19 20/34/20
f 124/47/124 125/48/125 17/32/17 15/30/15
f 126/49/126 127/50/127 14/29/14 12/27/12
f 54/51/54 51/52/51 13/28/13 14/29/14
f 109/53/109 110/14/110 11/15/11 9/25/9
f 111/54/111 112/55/112 26/39/26 24/37/24
f 55/56/55 50/57/50 25/38/25 26/39/26
f 128/58/128 129/10/129 23/11/23 21/35/21
f 44/8/44 46/59/46 29/40/29 27/7/27
f 130/60/130 131/61/131 32/43/32 30/41/30
f 135/62/135 41/63/41 17/32/17 125/48/125
f 89/64/89 94/67/94 1/66/1 2/65/2
f 33/68/33 39/71/39 3/70/3 4/69/4
f 35/72/35 38/75/38 5/74/5 6/73/6
f 36/76/36 37/79/37 7/78/7 8/77/8
f 122/80/122 91/82/91 5/74/5 113/81/113
f 148/83/148 90/85/90 3/70/3 132/84/132
f 121/86/121 89/64/89 2/65/2 114/87/114
f 48/88/48 41/63/41 37/79/37 36/76/36
f 47/89/47 42/16/42 38/75/38 35/72/35
f 45/90/45 43/12/43 39/71/39 33/68/33
f 123/91/123 7/78/7 37/79/37 133/92/133
f 2/65/2 1/66/1 34/94/34 40/93/40
f 113/81/113 5/74/5 38/75/38 115/95/115
f 132/84/132 3/70/3 39/71/39 134/96/134
f 114/87/114 2/65/2 40/93/40 116/97/116
f 22/36/22 23/11/23 43/12/43 45/90/45
f 10/26/10 11/15/11 42/16/42 47/89/47
f 16/31/16 17/32/17 41/63/41 48/88/48
f 133/92/133 37/79/37 41/63/41 135/62/135
f 40/93/40 34/94/34 46/59/46 44/8/44
f 115/95/115 38/75/38 42/16/42 117/13/117
f 134/96/134 39/71/39 43/12/43 136/9/136
f 116/97/116 40/93/40 44/8/44 118/5/118
f 108/44/108 31/42/31 49/99/49 119/98/119
f 131/100/131 25/38/25 50/57/50 137/101/137
f 112/55/112 13/28/13 51/52/51 120/102/120
f 31/42/31 32/43/32 56/103/56 49/99/49
f 93/104/93 90/85/90 50/57/50 55/56/55
f 98/105/98 95/108/95 58/107/58 67/106/67
f 65/109/65 64/112/64 60/111/60 66/110/66
f 127/113/127 19/33/19 52/46/52 138/114/138
f 102/115/102 100/118/100 82/117/82 86/116/86
f 64/112/64 88/120/88 80/119/80 60/111/60
f 96/121/96 104/124/104 85/123/85 63/122/63
f 71/125/71 63/122/63 61/127/61 70/126/70
f 68/22/68 59/23/59 62/129/62 72/128/72
f 67/106/67 58/107/58 57/131/57 69/130/69
f 141/132/141 140/133/140 64/112/64 65/109/65
f 97/134/97 96/121/96 63/122/63 71/125/71
f 92/135/92 97/134/97 71/125/71 53/45/53
f 138/136/138 141/132/141 65/109/65 54/51/54
f 5/74/5 67/106/67 69/130/69 6/73/6
f 7/78/7 68/22/68 72/128/72 8/77/8
f 53/45/53 71/125/71 70/126/70 52/46/52
f 54/51/54 65/109/65 66/110/66 51/52/51
f 91/82/91 98/105/98 67/106/67 5/74/5
f 123/91/123 142/21/142 68/22/68 7/78/7
f 99/137/99 101/140/101 79/139/79 87/138/87
f 139/24/139 143/142/143 77/141/77 59/23/59
f 59/23/59 77/141/77 84/143/84 62/129/62
f 147/144/147 100/118/100 78/146/78 144/145/144
f 63/122/63 85/123/85 81/147/81 61/127/61
f 140/133/140 146/148/146 88/120/88 64/112/64
f 95/108/95 103/150/103 75/149/75 58/107/58
f 74/151/74 73/153/73 75/149/75 76/152/76
f 143/142/143 144/145/144 78/146/78 77/141/77
f 83/154/83 84/143/84 77/141/77 78/146/78
f 88/120/88 87/138/87 79/139/79 80/119/80
f 85/123/85 86/116/86 82/117/82 81/147/81
f 145/155/145 146/156/146 81/147/81 82/117/82
f 58/107/58 75/149/75 73/153/73 57/131/57
f 84/143/84 83/154/83 102/115/102 104/124/104
f 103/150/103 101/140/101 76/152/76 75/149/75
f 104/124/104 102/115/102 86/116/86 85/123/85
f 80/119/80 79/139/79 101/140/101 103/150/103
f 60/111/60 80/119/80 103/150/103 95/108/95
f 145/155/145 82/117/82 100/118/100 147/144/147
f 74/151/74 76/152/76 101/140/101 99/137/99
f 51/52/51 66/110/66 98/105/98 91/82/91
f 8/77/8 72/128/72 97/134/97 92/135/92
f 72/128/72 62/129/62 96/121/96 97/134/97
f 62/129/62 84/143/84 104/124/104 96/121/96
f 83/154/83 78/146/78 100/118/100 102/115/102
f 66/110/66 60/111/60 95/108/95 98/105/98
f 4/69/4 3/70/3 90/85/90 93/104/93
f 119/98/119 49/99/49 89/64/89 121/86/121
f 137/101/137 50/57/50 90/85/90 148/83/148
f 120/102/120 51/52/51 91/82/91 122/80/122
f 49/99/49 56/103/56 94/67/94 89/64/89
f 55/56/55 120/102/120 122/80/122 93/104/93
f 53/45/53 119/98/119 121/86/121 92/135/92
f 26/39/26 112/55/112 120/102/120 55/56/55
f 20/34/20 108/44/108 119/98/119 53/45/53
f 36/76/36 116/97/116 118/5/118 48/88/48
f 33/68/33 115/95/115 117/13/117 45/90/45
f 8/77/8 114/87/114 116/97/116 36/76/36
f 4/69/4 113/81/113 115/95/115 33/68/33
f 92/135/92 121/86/121 114/87/114 8/77/8
f 93/104/93 122/80/122 113/81/113 4/69/4
f 12/27/12 13/28/13 112/55/112 111/54/111
f 21/35/21 22/36/22 110/14/110 109/53/109
f 30/41/30 31/42/31 108/44/108 107/4/107
f 15/30/15 16/31/16 106/6/106 105/20/105
f 124/47/124 15/30/15 105/20/105 149/17/149
f 45/90/45 117/13/117 110/14/110 22/36/22
f 48/88/48 118/5/118 106/6/106 16/31/16
f 130/60/130 30/41/30 107/4/107 150/1/150
f 24/37/24 130/158/130 150/157/150 111/54/111
f 9/25/9 124/160/124 149/159/149 109/53/109
f 56/103/56 137/162/137 148/161/148 94/67/94
f 87/138/87 145/164/145 147/163/147 99/137/99
f 87/138/87 88/120/88 146/148/146 145/164/145
f 73/153/73 74/151/74 144/166/144 143/165/143
f 61/127/61 81/147/81 146/156/146 140/167/140
f 99/137/99 147/163/147 144/166/144 74/151/74
f 57/131/57 73/153/73 143/165/143 139/168/139
f 6/73/6 69/130/69 142/170/142 123/169/123
f 52/46/52 70/126/70 141/171/141 138/114/138
f 70/126/70 61/127/61 140/167/140 141/171/141
f 14/29/14 127/50/127 138/136/138 54/51/54
f 32/43/32 131/61/131 137/162/137 56/103/56
f 34/94/34 134/173/134 136/172/136 46/59/46
f 35/72/35 133/175/133 135/174/135 47/89/47
f 1/66/1 132/176/132 134/173/134 34/94/34
f 6/73/6 123/169/123 133/175/133 35/72/35
f 94/67/94 148/161/148 132/176/132 1/66/1
f 47/89/47 135/174/135 125/177/125 10/26/10
f 24/37/24 25/38/25 131/100/131 130/158/130
f 28/19/28 29/40/29 129/178/129 128/18/128
f 18/3/18 19/33/19 127/113/127 126/2/126
f 9/25/9 10/26/10 125/177/125 124/160/124
f 69/130/69 57/131/57 139/168/139 142/170/142
f 109/53/109 149/159/149 128/58/128 21/35/21
f 46/59/46 136/172/136 129/178/129 29/40/29
f 111/54/111 150/157/150 126/49/126 12/27/12
